<svg xmlns="http://www.w3.org/2000/svg" width="100%" height="100%" fill="none" viewBox="0 0 32 32"><path fill="url(#paint0_radial_18_22247)" d="M23.0368 2.50597C23.6226 1.92019 24.5723 1.92019 25.1581 2.50597L29.5212 6.86903C30.107 7.45481 30.107 8.40456 29.5212 8.99035L9.46387 29.0477L2.9795 22.5633L23.0368 2.50597Z"/><path fill="url(#paint1_linear_18_22247)" d="M23.0368 2.50597C23.6226 1.92019 24.5723 1.92019 25.1581 2.50597L29.5212 6.86903C30.107 7.45481 30.107 8.40456 29.5212 8.99035L9.46387 29.0477L2.9795 22.5633L23.0368 2.50597Z"/><path fill="url(#paint2_linear_18_22247)" d="M23.0368 2.50597C23.6226 1.92019 24.5723 1.92019 25.1581 2.50597L29.5212 6.86903C30.107 7.45481 30.107 8.40456 29.5212 8.99035L9.46387 29.0477L2.9795 22.5633L23.0368 2.50597Z"/><path fill="url(#paint3_radial_18_22247)" d="M23.0368 2.50597C23.6226 1.92019 24.5723 1.92019 25.1581 2.50597L29.5212 6.86903C30.107 7.45481 30.107 8.40456 29.5212 8.99035L9.46387 29.0477L2.9795 22.5633L23.0368 2.50597Z"/><path fill="url(#paint4_linear_18_22247)" d="M2.03436 29.7823C2.02253 29.9073 2.12756 30.0122 2.25261 30.0002L8.79374 29.3714C8.98196 29.3533 9.16119 29.2822 9.31064 29.1664L9.46389 29.0476L2.97951 22.5632L2.87895 22.685C2.75153 22.8393 2.67335 23.0283 2.6545 23.2275L2.03436 29.7823Z"/><path fill="url(#paint5_linear_18_22247)" d="M2.03436 29.7823C2.02253 29.9073 2.12756 30.0122 2.25261 30.0002L8.79374 29.3714C8.98196 29.3533 9.16119 29.2822 9.31064 29.1664L9.46389 29.0476L2.97951 22.5632L2.87895 22.685C2.75153 22.8393 2.67335 23.0283 2.6545 23.2275L2.03436 29.7823Z"/><path fill="url(#paint6_linear_18_22247)" d="M2.03436 29.7823C2.02253 29.9073 2.12756 30.0122 2.25261 30.0002L8.79374 29.3714C8.98196 29.3533 9.16119 29.2822 9.31064 29.1664L9.46389 29.0476L2.97951 22.5632L2.87895 22.685C2.75153 22.8393 2.67335 23.0283 2.6545 23.2275L2.03436 29.7823Z"/><path fill="url(#paint7_linear_18_22247)" d="M26.3397 12.1719L29.5212 8.99037C30.107 8.40459 30.107 7.45483 29.5212 6.86905L25.1581 2.50599C24.5723 1.9202 23.6226 1.9202 23.0368 2.50599L19.8553 5.68752L26.3397 12.1719Z"/><path fill="url(#paint8_linear_18_22247)" d="M26.3397 12.1719L29.5212 8.99037C30.107 8.40459 30.107 7.45483 29.5212 6.86905L25.1581 2.50599C24.5723 1.9202 23.6226 1.9202 23.0368 2.50599L19.8553 5.68752L26.3397 12.1719Z"/><path fill="url(#paint9_radial_18_22247)" d="M26.3397 12.1719L29.5212 8.99037C30.107 8.40459 30.107 7.45483 29.5212 6.86905L25.1581 2.50599C24.5723 1.9202 23.6226 1.9202 23.0368 2.50599L19.8553 5.68752L26.3397 12.1719Z"/><path fill="url(#paint10_linear_18_22247)" d="M16.6656 8.87719L19.8553 5.6875L26.3397 12.1719L23.15 15.3615L16.6656 8.87719Z"/><path fill="url(#paint11_linear_18_22247)" d="M16.6656 8.87719L19.8553 5.6875L26.3397 12.1719L23.15 15.3615L16.6656 8.87719Z"/><path fill="url(#paint12_linear_18_22247)" d="M2.25262 30.0002C2.12756 30.0122 2.02252 29.9073 2.03436 29.7823L2.25189 27.4829L4.54846 29.7795L2.25262 30.0002Z"/><defs><radialGradient id="paint0_radial_18_22247" cx="0" cy="0" r="1" gradientTransform="translate(6.19904 26) rotate(-45.6437) scale(19.6676 12.1998)" gradientUnits="userSpaceOnUse"><stop stop-color="#FF9130"/><stop offset="1" stop-color="#F3633D"/></radialGradient><linearGradient id="paint1_linear_18_22247" x1="10.136" x2="11.699" y1="14.875" y2="16.375" gradientUnits="userSpaceOnUse"><stop stop-color="#EE9B6A"/><stop offset="1" stop-color="#EE9B6A" stop-opacity="0"/></linearGradient><linearGradient id="paint2_linear_18_22247" x1="20.637" x2="18.762" y1="18.5" y2="16.938" gradientUnits="userSpaceOnUse"><stop stop-color="#E66A62"/><stop offset="1" stop-color="#E66A62" stop-opacity="0"/></linearGradient><radialGradient id="paint3_radial_18_22247" cx="0" cy="0" r="1" gradientTransform="translate(5.94904 25.8125) rotate(-44.8606) scale(18.1639 4.06177)" gradientUnits="userSpaceOnUse"><stop stop-color="#FF994D"/><stop offset="1" stop-color="#FF994D" stop-opacity="0"/></radialGradient><linearGradient id="paint4_linear_18_22247" x1="3.887" x2="6.512" y1="26.094" y2="30.219" gradientUnits="userSpaceOnUse"><stop stop-color="#D8A587"/><stop offset="1" stop-color="#CE7A98"/></linearGradient><linearGradient id="paint5_linear_18_22247" x1="6.98" x2="6.457" y1="26.282" y2="26.812" gradientUnits="userSpaceOnUse"><stop offset=".207" stop-color="#FFC09F"/><stop offset="1" stop-color="#FCB196" stop-opacity="0"/></linearGradient><linearGradient id="paint6_linear_18_22247" x1="1.512" x2="3.637" y1="25.937" y2="26.125" gradientUnits="userSpaceOnUse"><stop stop-color="#DEBCA3"/><stop offset="1" stop-color="#DEBCA3" stop-opacity="0"/></linearGradient><linearGradient id="paint7_linear_18_22247" x1="28.074" x2="23.949" y1="4.938" y2="9" gradientUnits="userSpaceOnUse"><stop stop-color="#FF6153"/><stop offset="1" stop-color="#FF6154"/></linearGradient><linearGradient id="paint8_linear_18_22247" x1="20.762" x2="24.012" y1="4.563" y2="7.563" gradientUnits="userSpaceOnUse"><stop stop-color="#F1553E"/><stop offset="1" stop-color="#F1553E" stop-opacity="0"/></linearGradient><radialGradient id="paint9_radial_18_22247" cx="0" cy="0" r="1" gradientTransform="translate(27.2303 5.87503) rotate(135) scale(1.37002 3.11227)" gradientUnits="userSpaceOnUse"><stop offset=".177" stop-color="#FF786D"/><stop offset="1" stop-color="#FF786D" stop-opacity="0"/></radialGradient><linearGradient id="paint10_linear_18_22247" x1="18.324" x2="22.449" y1="7.375" y2="11.125" gradientUnits="userSpaceOnUse"><stop stop-color="#C5C4CB"/><stop offset="1" stop-color="#E8DEFA"/></linearGradient><linearGradient id="paint11_linear_18_22247" x1="24.824" x2="22.512" y1="14.375" y2="12.125" gradientUnits="userSpaceOnUse"><stop stop-color="#C9B9E0"/><stop offset="1" stop-color="#C9B9E0" stop-opacity="0"/></linearGradient><linearGradient id="paint12_linear_18_22247" x1="2.23" x2="3.291" y1="28.531" y2="30.001" gradientUnits="userSpaceOnUse"><stop stop-color="#461E49"/><stop offset="1" stop-color="#450F51"/></linearGradient></defs></svg>